# This file uses centimeters as units for non-parametric coordinates.

mtllib Lab_Arm.mtl
g default
v 7.016565 0.500000 9.733010
v 7.016565 -0.500000 9.733010
v 7.468008 0.500000 9.733010
v 7.468008 -0.500000 9.733010
v 7.468008 0.500000 3.272590
v 7.468008 -0.500000 3.272590
v 7.016565 0.500000 3.272590
v 7.016565 -0.500000 3.272590
vt 0.375000 0.000000
vt 0.625000 0.000000
vt 0.375000 0.250000
vt 0.625000 0.250000
vt 0.375000 0.500000
vt 0.625000 0.500000
vt 0.375000 0.750000
vt 0.625000 0.750000
vt 0.375000 1.000000
vt 0.625000 1.000000
vt 0.875000 0.000000
vt 0.875000 0.250000
vt 0.125000 0.000000
vt 0.125000 0.250000
vn 0.000000 0.000000 1.000000
vn 0.000000 0.000000 1.000000
vn 0.000000 0.000000 1.000000
vn 0.000000 0.000000 1.000000
vn 1.000000 0.000000 0.000000
vn 1.000000 0.000000 0.000000
vn 1.000000 0.000000 0.000000
vn 1.000000 0.000000 0.000000
vn 0.000000 0.000000 -1.000000
vn 0.000000 0.000000 -1.000000
vn 0.000000 0.000000 -1.000000
vn 0.000000 0.000000 -1.000000
vn -1.000000 -0.000000 0.000000
vn -1.000000 -0.000000 0.000000
vn -1.000000 -0.000000 0.000000
vn -1.000000 -0.000000 0.000000
vn 0.000000 -1.000000 0.000000
vn 0.000000 -1.000000 0.000000
vn 0.000000 -1.000000 0.000000
vn 0.000000 -1.000000 0.000000
vn 0.000000 1.000000 0.000000
vn 0.000000 1.000000 0.000000
vn 0.000000 1.000000 0.000000
vn 0.000000 1.000000 0.000000
s off
g ForeArm_Geo Geo Arm_Group
usemtl initialShadingGroup
f 1/1/1 2/2/2 4/4/3 3/3/4
f 3/3/5 4/4/6 6/6/7 5/5/8
f 5/5/9 6/6/10 8/8/11 7/7/12
f 7/7/13 8/8/14 2/10/15 1/9/16
f 2/2/17 8/11/18 6/12/19 4/4/20
f 7/13/21 1/1/22 3/3/23 5/14/24
g default
v 7.016565 0.500000 3.230210
v 7.016565 -0.500000 3.230210
v 7.468008 0.500000 3.230210
v 7.468008 -0.500000 3.230210
v 7.468008 0.500000 -3.230210
v 7.468008 -0.500000 -3.230210
v 7.016565 0.500000 -3.230210
v 7.016565 -0.500000 -3.230210
v 7.468008 0.500000 0.000000
v 7.016565 0.500000 0.000000
v 7.016565 -0.500000 0.000000
v 7.468008 -0.500000 0.000000
vt 0.375000 0.000000
vt 0.625000 0.000000
vt 0.375000 0.250000
vt 0.625000 0.250000
vt 0.375000 0.500000
vt 0.625000 0.500000
vt 0.375000 0.750000
vt 0.625000 0.750000
vt 0.375000 1.000000
vt 0.625000 1.000000
vt 0.875000 0.000000
vt 0.875000 0.250000
vt 0.125000 0.000000
vt 0.125000 0.250000
vt 0.250000 0.250000
vt 0.375000 0.375000
vt 0.250000 0.000000
vt 0.375000 0.875000
vt 0.625000 0.875000
vt 0.750000 0.000000
vt 0.625000 0.375000
vt 0.750000 0.250000
vn 0.000000 0.000000 1.000000
vn 0.000000 0.000000 1.000000
vn 0.000000 0.000000 1.000000
vn 0.000000 0.000000 1.000000
vn 1.000000 0.000000 0.000000
vn 1.000000 0.000000 0.000000
vn 1.000000 0.000000 0.000000
vn 1.000000 0.000000 0.000000
vn 0.000000 0.000000 -1.000000
vn 0.000000 0.000000 -1.000000
vn 0.000000 0.000000 -1.000000
vn 0.000000 0.000000 -1.000000
vn -1.000000 -0.000000 0.000000
vn -1.000000 -0.000000 0.000000
vn -1.000000 -0.000000 0.000000
vn -1.000000 -0.000000 0.000000
vn 0.000000 -1.000000 0.000000
vn 0.000000 -1.000000 0.000000
vn 0.000000 -1.000000 0.000000
vn 0.000000 -1.000000 0.000000
vn 0.000000 1.000000 0.000000
vn 0.000000 1.000000 0.000000
vn 0.000000 1.000000 0.000000
vn 0.000000 1.000000 0.000000
vn 0.000000 1.000000 0.000000
vn 0.000000 1.000000 0.000000
vn -1.000000 -0.000000 0.000000
vn -1.000000 -0.000000 0.000000
vn 0.000000 -1.000000 0.000000
vn 0.000000 -1.000000 0.000000
vn 1.000000 0.000000 0.000000
vn 1.000000 0.000000 0.000000
s off
g Geo Arm_Group UpperArm_Geo
usemtl initialShadingGroup
f 9/15/25 10/16/26 12/18/27 11/17/28
s 1
f 11/17/29 12/18/30 20/35/31 17/30/32
s off
f 13/19/33 14/20/34 16/22/35 15/21/36
s 2
f 18/32/37 19/33/38 10/24/39 9/23/40
s 3
f 10/16/41 19/34/42 20/36/43 12/18/44
s 4
f 17/29/45 18/31/46 9/15/47 11/17/48
f 15/27/49 18/31/46 17/29/45 13/28/50
s 2
f 15/21/51 16/22/52 19/33/38 18/32/37
s 3
f 20/36/43 19/34/42 16/25/53 14/26/54
s 1
f 17/30/32 20/35/31 14/20/55 13/19/56
